<svg xmlns="http://www.w3.org/2000/svg" width="32" height="32" viewBox="0 0 400 400"><path d="M33.288 13.689c-15.2 4.174-28.071 17.166-32.135 32.44-1.706 6.409-1.706 301.333 0 307.742 4.114 15.46 17.016 28.362 32.476 32.476 6.414 1.707 326.328 1.707 332.742 0 15.46-4.114 28.362-17.016 32.476-32.476 1.706-6.409 1.706-301.333 0-307.742-4.114-15.46-17.016-28.362-32.476-32.476-6.131-1.632-327.137-1.597-333.083.036m235.694 67.943c32.58 8.486 43.755 48.678 20.094 72.274-26.463 26.392-71.283 9.182-73.25-28.125-1.513-28.708 25.691-51.303 53.156-44.149m-122.964 89.526c3.456 2.107.104-2.095 43.079 54.009 46.074 60.151 42.586 56.443 53.091 56.443 7.935 0 9.098-.736 23.437-14.832 17.46-17.164 24.115-19.106 33.458-9.762 2.295 2.294 47.447 66.223 50.862 72.011 4.217 7.15 3.396 12.075-2.455 14.731-3.924 1.781-280.468 2.476-286.789.721-6.874-1.909-10.257-8.995-7.525-15.759 2.264-5.606 76.066-151.164 77.876-153.591 4.102-5.505 9.919-7.048 14.966-3.971" fill-rule="evenodd"/></svg>